
<svg xmlns="http://www.w3.org/2000/svg" xmlns:xlink="http://www.w3.org/1999/xlink" version="1.1"  width="1706" height="799">
<defs id="dmw_defs" >
<svg id="fk_sym" viewBox="0 0 48.665 48.665" style="enable-background:new 0 0 48.665 48.665;" >
<g>
<path d="M40.332,31.592c-2.377,0-4.515,1-6.033,2.598l-17.737-8.686c0.061-0.406,0.103-0.82,0.103-1.246    c0-0.414-0.04-0.818-0.098-1.215l17.711-8.589c1.519,1.609,3.666,2.619,6.054,2.619c4.603,0,8.333-3.731,8.333-8.333    c0-4.603-3.73-8.333-8.333-8.333s-8.333,3.73-8.333,8.333c0,0.414,0.04,0.817,0.098,1.215l-17.709,8.589    c-1.519-1.609-3.666-2.619-6.054-2.619C3.73,15.925,0,19.656,0,24.258c0,4.603,3.73,8.333,8.333,8.333    c2.377,0,4.515-1,6.033-2.596l17.736,8.685c-0.062,0.406-0.104,0.82-0.104,1.245c0,4.604,3.73,8.333,8.333,8.333    s8.333-3.729,8.333-8.333C48.665,35.322,44.935,31.592,40.332,31.592z" fill="#13bf3b"/>
</g>
</svg>
<svg id="pk_sym" viewBox="0 0 480.509 480.509" style="enable-background:new 0 0 480.509 480.509;" >
<g>
<path d="M418.119,331.046c4.094,4.374,7.766,8.186,10.996,11.416c3.237,3.238,6.714,6.376,10.427,9.422   c3.71,3.042,6.427,4.568,8.135,4.568c3.241,0,9.517-4.661,18.843-13.99c9.328-9.321,13.989-15.604,13.989-18.842   c0-1.523-2.714-5.421-8.138-11.704c-5.421-6.276-12.364-13.702-20.838-22.271c-8.473-8.565-16.703-16.744-24.694-24.55   c-8.001-7.81-15.8-15.373-23.417-22.703c-7.611-7.327-11.992-11.56-13.135-12.703c-1.902-1.902-4.093-2.853-6.563-2.853   c-3.237,0-9.521,4.661-18.843,13.988c-9.328,9.322-13.989,15.605-13.989,18.843c0,1.711,1.522,4.421,4.568,8.138   c3.046,3.71,6.188,7.187,9.421,10.424c3.23,3.23,7.047,6.899,11.42,10.992c4.377,4.093,6.848,6.423,7.423,6.995l-27.408,27.404   L254.954,222.268c24.94-33.498,37.408-68.236,37.408-104.211c0-31.024-9.761-56.293-29.263-75.801   c-19.512-19.511-44.778-29.265-75.805-29.265c-30.454,0-60.244,9.042-89.363,27.119c-29.121,18.083-52.727,41.686-70.808,70.808   C9.042,140.038,0,169.828,0,200.28c0,31.029,9.753,56.286,29.265,75.803c19.511,19.517,44.777,29.27,75.801,29.27   c35.976,0,70.71-12.467,104.212-37.407l191.574,191.579c5.332,5.328,11.796,7.994,19.417,7.994c7.991,0,15.704-3.72,23.12-11.14   c7.426-7.426,11.143-15.129,11.143-23.127c0-7.617-2.666-14.092-7.994-19.417l-62.811-62.811l27.405-27.404   C411.699,324.195,414.033,326.666,418.119,331.046z M221.556,161.458c-10.656,10.657-23.601,15.987-38.828,15.987   c-7.996,0-15.896-1.812-23.7-5.43c3.617,7.808,5.426,15.706,5.426,23.7c0,15.229-5.327,28.171-15.987,38.828   c-10.66,10.655-23.606,15.986-38.831,15.986c-15.227,0-28.168-5.325-38.828-15.986c-10.657-10.657-15.987-23.599-15.987-38.828   c0-15.227,5.327-28.171,15.987-38.828C81.464,146.23,94.409,140.9,109.636,140.9c7.992,0,15.893,1.809,23.695,5.424   c-3.616-7.804-5.424-15.706-5.424-23.699c0-15.227,5.327-28.171,15.987-38.828c10.66-10.657,23.604-15.987,38.831-15.987   c15.227,0,28.171,5.327,38.828,15.987c10.657,10.66,15.987,23.601,15.987,38.828C237.539,137.852,232.209,150.797,221.556,161.458z   " fill="#ff8345"/>
</g>
</svg>
<svg id="uk_sym" viewBox="0 0 490 490" style="enable-background:new 0 0 490 490;" >
<g>
	<polygon points="236.99,11.41 0,246.348 236.99,478.678 236.99,350.609 129.864,245 236.99,139.391  " fill="#0064fb"/>
<polygon points="253.01,478.59 490,243.651 253.01,11.322 253.01,139.391 360.136,245 253.01,350.609  " fill="#0064fb"/>
</g>
</svg>
<svg id="link_sym" viewBox="0 0 1000 900" style="enable-background:new 0 0 1000 900;" >
<g>
<path fill="black" d="M660.224 422.656c6.976 16.192-0.512 35.008-16.768 42.048-16.128 6.976-34.944-0.448-41.984-16.768-8.448-19.776-20.736-37.696-36.224-53.248-64.64-64.64-177.344-64.64-241.92 0l-145.216 145.28c-66.688 66.688-66.688 175.232 0 241.984 66.688 66.688 175.104 66.752 241.92 0l92.8-92.864c12.48-12.48 32.768-12.48 45.248 0s12.48 32.768 0 45.248l-92.8 92.864c-91.648 91.648-240.832 91.52-332.416 0-91.712-91.648-91.712-240.832 0-332.48l145.216-145.28c44.352-44.416 103.424-68.864 166.272-68.864s121.792 24.448 166.208 68.864c21.248 21.312 38.016 45.952 49.664 73.216zM891.136 401.344l-145.216 145.216c-88.768 88.832-243.712 88.832-332.416 0-21.312-21.312-38.080-45.952-49.728-73.216-7.040-16.256 0.448-35.072 16.704-42.048 16.064-6.784 35.008 0.512 41.984 16.768 8.512 19.776 20.8 37.696 36.288 53.248 64.64 64.64 177.344 64.64 241.92 0l145.216-145.216c66.688-66.688 66.688-175.232 0-241.984-66.752-66.624-175.168-66.688-241.92 0l-92.8 92.864c-12.48 12.48-32.768 12.48-45.248 0s-12.48-32.768 0-45.248l92.8-92.864c45.824-45.824 105.984-68.736 166.208-68.736s120.448 22.912 166.272 68.736c91.584 91.648 91.584 240.768-0.064 332.48z" />
</g>
</svg>
<clipPath clipPathUnits="userSpaceOnUse" id="clipPath5_0_">
<rect x="0" y="0" width="170" height="96" />
</clipPath>
<clipPath clipPathUnits="userSpaceOnUse" id="clipPath4_0_">
<rect x="0" y="0" width="274" height="111" />
</clipPath>
<clipPath clipPathUnits="userSpaceOnUse" id="clipPath9_0_">
<rect x="0" y="0" width="230" height="111" />
</clipPath>
<clipPath clipPathUnits="userSpaceOnUse" id="clipPath8_0_">
<rect x="0" y="0" width="288" height="124" />
</clipPath>
<clipPath clipPathUnits="userSpaceOnUse" id="clipPath3_0_">
<rect x="0" y="0" width="180" height="60" />
</clipPath>
<clipPath clipPathUnits="userSpaceOnUse" id="clipPath6_0_">
<rect x="0" y="0" width="194" height="95" />
</clipPath>
<clipPath clipPathUnits="userSpaceOnUse" id="clipPath7_0_">
<rect x="0" y="0" width="212" height="178" />
</clipPath>
<clipPath clipPathUnits="userSpaceOnUse" id="clipPath1_0_">
<rect x="0" y="0" width="227" height="202" />
</clipPath>
<clipPath clipPathUnits="userSpaceOnUse" id="clipPath2_0_">
<rect x="0" y="0" width="288" height="135" />
</clipPath>
</defs>
<g stroke-linecap="butt" >
<path stroke="rgb(0,0,0)" fill="none" stroke-opacity="1.0"  stroke-width="1" d="M1622 621 L1622 346 L1399 346" />
<path stroke-dasharray="none" d="M1616.0 615.0 L1628.0 615.0 M1616.0 609.6000003814697 L1628.0 609.6000003814697" fill="none" stroke-width="1" stroke-opacity="1.0" stroke="rgb(0,0,0)" />
<path stroke-dasharray="none" d="M1405.0 340.0 L1405.0 352.0" fill="none" stroke-width="1" stroke-opacity="1.0" stroke="rgb(0,0,0)" />
<circle  cx="1411.5999994277954" cy="346.0" r="5.4" fill="rgb(0,0,0)" stroke-width="1" stroke-opacity="1.0" stroke="rgb(0,0,0)" />
</g>
<g stroke-linecap="butt" >
<path stroke="rgb(0,0,0)" fill="none" stroke-opacity="1.0"  stroke-width="1" d="M1047 73 L1315 73 L1315 141" />
<path stroke-dasharray="none" d="M1053.0 67.0 L1053.0 79.0 M1058.3999996185303 67.0 L1058.3999996185303 79.0" fill="none" stroke-width="1" stroke-opacity="1.0" stroke="rgb(0,0,0)" />
<path stroke-dasharray="none" d=" M1309.0 141.0 L1315.0 129.0 L1321.0 141.0" fill="none" stroke-width="1" stroke-opacity="1.0" stroke="rgb(0,0,0)" />
<circle  cx="1315.0" cy="120.0" r="5.4" fill="rgb(0,0,0)" stroke-width="1" stroke-opacity="1.0" stroke="rgb(0,0,0)" />
</g>
<g stroke-linecap="butt" >
<path stroke="rgb(0,0,0)" fill="none" stroke-opacity="1.0"  stroke-width="1" d="M957 79 L957 316" />
<path stroke-dasharray="none" d="M963.0 85.0 L951.0 85.0 M963.0 90.39999961853027 L951.0 90.39999961853027" fill="none" stroke-width="1" stroke-opacity="1.0" stroke="rgb(0,0,0)" />
<path stroke-dasharray="none" d=" M951.0 316.0 L957.0 304.0 L963.0 316.0" fill="none" stroke-width="1" stroke-opacity="1.0" stroke="rgb(0,0,0)" />
<circle  cx="957.0" cy="295.0" r="5.4" fill="rgb(0,0,0)" stroke-width="1" stroke-opacity="1.0" stroke="rgb(0,0,0)" />
</g>
<g stroke-linecap="butt" >
<path stroke="rgb(0,0,0)" fill="none" stroke-opacity="1.0"  stroke-width="1" d="M1622 621 L1622 542 L1422 542" />
<path stroke-dasharray="none" d="M1616.0 615.0 L1628.0 615.0 M1616.0 609.6000003814697 L1628.0 609.6000003814697" fill="none" stroke-width="1" stroke-opacity="1.0" stroke="rgb(0,0,0)" />
<path stroke-dasharray="none" d="M1428.0 536.0 L1428.0 548.0" fill="none" stroke-width="1" stroke-opacity="1.0" stroke="rgb(0,0,0)" />
<circle  cx="1434.5999994277954" cy="542.0" r="5.4" fill="rgb(0,0,0)" stroke-width="1" stroke-opacity="1.0" stroke="rgb(0,0,0)" />
</g>
<g stroke-linecap="butt" >
<path stroke="rgb(0,0,0)" fill="none" stroke-opacity="1.0"  stroke-dasharray="8,8" stroke-width="1" d="M828 361 L661 361" />
<path stroke-dasharray="none" d="M822.0 367.0 L822.0 355.0 M816.6000003814697 367.0 L816.6000003814697 355.0" fill="none" stroke-width="1" stroke-opacity="1.0" stroke="rgb(0,0,0)" />
<path stroke-dasharray="none" d=" M661.0 355.0 L673.0 361.0 L661.0 367.0" fill="none" stroke-width="1" stroke-opacity="1.0" stroke="rgb(0,0,0)" />
<circle  cx="682.0" cy="361.0" r="5.4" fill="rgb(0,0,0)" stroke-width="1" stroke-opacity="1.0" stroke="rgb(0,0,0)" />
</g>
<g stroke-linecap="butt" >
<path stroke="rgb(0,0,0)" fill="none" stroke-opacity="1.0"  stroke-width="1" d="M1494 721 L1095 721" />
<path stroke-dasharray="none" d="M1488.0 727.0 L1488.0 715.0 M1482.6000003814697 727.0 L1482.6000003814697 715.0" fill="none" stroke-width="1" stroke-opacity="1.0" stroke="rgb(0,0,0)" />
<path stroke-dasharray="none" d=" M1095.0 715.0 L1107.0 721.0 L1095.0 727.0" fill="none" stroke-width="1" stroke-opacity="1.0" stroke="rgb(0,0,0)" />
<circle  cx="1116.0" cy="721.0" r="5.4" fill="rgb(0,0,0)" stroke-width="1" stroke-opacity="1.0" stroke="rgb(0,0,0)" />
</g>
<g stroke-linecap="butt" >
<path stroke="rgb(0,0,0)" fill="none" stroke-opacity="1.0"  stroke-width="1" d="M867 69 L570 69 L570 137" />
<path stroke-dasharray="none" d="M861.0 75.0 L861.0 63.0 M855.6000003814697 75.0 L855.6000003814697 63.0" fill="none" stroke-width="1" stroke-opacity="1.0" stroke="rgb(0,0,0)" />
<path stroke-dasharray="none" d=" M564.0 137.0 L570.0 125.0 L576.0 137.0" fill="none" stroke-width="1" stroke-opacity="1.0" stroke="rgb(0,0,0)" />
<circle  cx="570.0" cy="116.0" r="5.4" fill="rgb(0,0,0)" stroke-width="1" stroke-opacity="1.0" stroke="rgb(0,0,0)" />
</g>
<g stroke-linecap="butt" >
<path stroke="rgb(0,0,0)" fill="none" stroke-opacity="1.0"  stroke-dasharray="8,8" stroke-width="1" d="M1102 327 L1229 327" />
<path stroke-dasharray="none" d="M1102.0 321.0 L1114.0 327.0 L1102.0 333.0 M1114.5999994277954 321.0 L1114.5999994277954 333.0" fill="none" stroke-width="1" stroke-opacity="1.0" stroke="rgb(0,0,0)" />
<path stroke-dasharray="none" d=" M1229.0 333.0 L1217.0 327.0 L1229.0 321.0" fill="none" stroke-width="1" stroke-opacity="1.0" stroke="rgb(0,0,0)" />
<circle  cx="1208.0" cy="327.0" r="5.4" fill="rgb(0,0,0)" stroke-width="1" stroke-opacity="1.0" stroke="rgb(0,0,0)" />
</g>
<g stroke-linecap="butt" >
<path stroke="rgb(0,0,0)" fill="none" stroke-opacity="1.0"  stroke-dasharray="8,8" stroke-width="1" d="M950 427 L950 539 L1228 539" />
<path stroke-dasharray="none" d="M956.0 427.0 L950.0 439.0 L944.0 427.0 M956.0 439.5999994277954 L944.0 439.5999994277954" fill="none" stroke-width="1" stroke-opacity="1.0" stroke="rgb(0,0,0)" />
<path stroke-dasharray="none" d=" M1228.0 545.0 L1216.0 539.0 L1228.0 533.0" fill="none" stroke-width="1" stroke-opacity="1.0" stroke="rgb(0,0,0)" />
<circle  cx="1207.0" cy="539.0" r="5.4" fill="rgb(0,0,0)" stroke-width="1" stroke-opacity="1.0" stroke="rgb(0,0,0)" />
</g>
<g  fill="rgb(164,225,255)" stroke="rgb(0,0,255)" fill-opacity="1.0" stroke-opacity="1.0" clip-path="url(#clipPath7_0_)" transform="translate(1494,621)" >
<rect x="0" y="0" width="211" height="177" />
<text id="CA44A5FD-F2DDA73DF9C0" x="81" y="13" fill="rgb(0,0,255)" font-weight="bold"  fill-opacity="1.0" font-size="10" stroke="none">
Property
</text>
<line x1="0" y1="17" x2="210" y2="17" fill="none" stroke="rgb(0,0,255)"/>
<text x="16" y="30" fill="rgb(255,0,0)" fill-opacity="1.0" font-size="10" stroke="none">
*
</text>
<text x="2" y="30" fill="rgb(0,0,255)" fill-opacity="1.0" font-size="10" stroke="none">
P
</text>
<text x="27" y="30" fill="rgb(0,0,0)" fill-opacity="1.0" font-size="10" stroke="none">
propertyID
</text>
<text x="112" y="30" fill="rgb(0,128,0)" fill-opacity="1.0" font-size="10" stroke="none">
NUMBER (5)
</text>
<text x="16" y="43" fill="rgb(255,0,0)" fill-opacity="1.0" font-size="10" stroke="none">

</text>
<text x="27" y="43" fill="rgb(0,0,0)" fill-opacity="1.0" font-size="10" stroke="none">
address
</text>
<text x="112" y="43" fill="rgb(0,128,0)" fill-opacity="1.0" font-size="10" stroke="none">
VARCHAR2 (50)
</text>
<text x="16" y="56" fill="rgb(255,0,0)" fill-opacity="1.0" font-size="10" stroke="none">

</text>
<text x="27" y="56" fill="rgb(0,0,0)" fill-opacity="1.0" font-size="10" stroke="none">
numBedrooms
</text>
<text x="112" y="56" fill="rgb(0,128,0)" fill-opacity="1.0" font-size="10" stroke="none">
NUMBER (2)
</text>
<text x="16" y="69" fill="rgb(255,0,0)" fill-opacity="1.0" font-size="10" stroke="none">

</text>
<text x="27" y="69" fill="rgb(0,0,0)" fill-opacity="1.0" font-size="10" stroke="none">
numFloors
</text>
<text x="112" y="69" fill="rgb(0,128,0)" fill-opacity="1.0" font-size="10" stroke="none">
NUMBER (2)
</text>
<text x="16" y="82" fill="rgb(255,0,0)" fill-opacity="1.0" font-size="10" stroke="none">

</text>
<text x="27" y="82" fill="rgb(0,0,0)" fill-opacity="1.0" font-size="10" stroke="none">
numToilets
</text>
<text x="112" y="82" fill="rgb(0,128,0)" fill-opacity="1.0" font-size="10" stroke="none">
NUMBER (2)
</text>
<text x="16" y="95" fill="rgb(255,0,0)" fill-opacity="1.0" font-size="10" stroke="none">

</text>
<text x="27" y="95" fill="rgb(0,0,0)" fill-opacity="1.0" font-size="10" stroke="none">
propertyType
</text>
<text x="112" y="95" fill="rgb(0,128,0)" fill-opacity="1.0" font-size="10" stroke="none">
VARCHAR2 (50)
</text>
<text x="16" y="108" fill="rgb(255,0,0)" fill-opacity="1.0" font-size="10" stroke="none">

</text>
<text x="27" y="108" fill="rgb(0,0,0)" fill-opacity="1.0" font-size="10" stroke="none">
hasBalcony
</text>
<text x="112" y="108" fill="rgb(0,128,0)" fill-opacity="1.0" font-size="10" stroke="none">
CHAR (1)
</text>
<text x="16" y="121" fill="rgb(255,0,0)" fill-opacity="1.0" font-size="10" stroke="none">

</text>
<text x="27" y="121" fill="rgb(0,0,0)" fill-opacity="1.0" font-size="10" stroke="none">
hasGarden
</text>
<text x="112" y="121" fill="rgb(0,128,0)" fill-opacity="1.0" font-size="10" stroke="none">
CHAR (1)
</text>
<text x="16" y="134" fill="rgb(255,0,0)" fill-opacity="1.0" font-size="10" stroke="none">

</text>
<text x="27" y="134" fill="rgb(0,0,0)" fill-opacity="1.0" font-size="10" stroke="none">
price
</text>
<text x="112" y="134" fill="rgb(0,128,0)" fill-opacity="1.0" font-size="10" stroke="none">
NUMBER (10)
</text>
<line x1="0" y1="140" x2="210" y2="140" fill="none" stroke="rgb(0,0,255)"/>
<use xlink:href="#pk_sym" x="4" y="147" width="8" height="8" fill-opacity="1.0"/>
<text x="16" y="153" fill="rgb(0,0,0)" fill-opacity="1.0" font-size="10" stroke="none">
PK_propertyID (propertyID)
</text>
</g>
<g  fill="rgb(164,225,255)" stroke="rgb(0,0,255)" fill-opacity="1.0" stroke-opacity="1.0" clip-path="url(#clipPath2_0_)" transform="translate(1226,141)" >
<rect x="0" y="0" width="287" height="134" />
<text id="E824DE04-5FDB91411FE6" x="100" y="13" fill="rgb(0,0,255)" font-weight="bold"  fill-opacity="1.0" font-size="10" stroke="none">
BuyTransaction
</text>
<line x1="0" y1="17" x2="286" y2="17" fill="none" stroke="rgb(0,0,255)"/>
<text x="16" y="30" fill="rgb(255,0,0)" fill-opacity="1.0" font-size="10" stroke="none">
*
</text>
<text x="2" y="30" fill="rgb(0,0,255)" fill-opacity="1.0" font-size="10" stroke="none">
P
</text>
<text x="27" y="30" fill="rgb(0,0,0)" fill-opacity="1.0" font-size="10" stroke="none">
buyTransactionID
</text>
<text x="131" y="30" fill="rgb(0,128,0)" fill-opacity="1.0" font-size="10" stroke="none">
NUMBER (5)
</text>
<text x="16" y="43" fill="rgb(255,0,0)" fill-opacity="1.0" font-size="10" stroke="none">
*
</text>
<text x="2" y="43" fill="rgb(0,0,255)" fill-opacity="1.0" font-size="10" stroke="none">
PF
</text>
<text x="27" y="43" fill="rgb(0,0,0)" fill-opacity="1.0" font-size="10" stroke="none">
companyID
</text>
<text x="131" y="43" fill="rgb(0,128,0)" fill-opacity="1.0" font-size="10" stroke="none">
NUMBER (5)
</text>
<text x="16" y="56" fill="rgb(255,0,0)" fill-opacity="1.0" font-size="10" stroke="none">

</text>
<text x="27" y="56" fill="rgb(0,0,0)" fill-opacity="1.0" font-size="10" stroke="none">
agentID
</text>
<text x="131" y="56" fill="rgb(0,128,0)" fill-opacity="1.0" font-size="10" stroke="none">
NUMBER (5)
</text>
<text x="16" y="69" fill="rgb(255,0,0)" fill-opacity="1.0" font-size="10" stroke="none">

</text>
<text x="27" y="69" fill="rgb(0,0,0)" fill-opacity="1.0" font-size="10" stroke="none">
propertyID
</text>
<text x="131" y="69" fill="rgb(0,128,0)" fill-opacity="1.0" font-size="10" stroke="none">
NUMBER (5)
</text>
<text x="16" y="82" fill="rgb(255,0,0)" fill-opacity="1.0" font-size="10" stroke="none">

</text>
<text x="27" y="82" fill="rgb(0,0,0)" fill-opacity="1.0" font-size="10" stroke="none">
buyerID
</text>
<text x="131" y="82" fill="rgb(0,128,0)" fill-opacity="1.0" font-size="10" stroke="none">
NUMBER (5)
</text>
<text x="16" y="95" fill="rgb(255,0,0)" fill-opacity="1.0" font-size="10" stroke="none">

</text>
<text x="27" y="95" fill="rgb(0,0,0)" fill-opacity="1.0" font-size="10" stroke="none">
sellerID
</text>
<text x="131" y="95" fill="rgb(0,128,0)" fill-opacity="1.0" font-size="10" stroke="none">
NUMBER (5)
</text>
<text x="16" y="108" fill="rgb(255,0,0)" fill-opacity="1.0" font-size="10" stroke="none">

</text>
<text x="27" y="108" fill="rgb(0,0,0)" fill-opacity="1.0" font-size="10" stroke="none">
price
</text>
<text x="131" y="108" fill="rgb(0,128,0)" fill-opacity="1.0" font-size="10" stroke="none">
NUMBER (10)
</text>
<line x1="0" y1="114" x2="286" y2="114" fill="none" stroke="rgb(0,0,255)"/>
<use xlink:href="#pk_sym" x="4" y="121" width="8" height="8" fill-opacity="1.0"/>
<text x="16" y="127" fill="rgb(0,0,0)" fill-opacity="1.0" font-size="10" stroke="none">
PK_buyTransactionID (buyTransactionID, companyID)
</text>
</g>
<g  fill="rgb(164,225,255)" stroke="rgb(0,0,255)" fill-opacity="1.0" stroke-opacity="1.0" clip-path="url(#clipPath3_0_)" transform="translate(867,19)" >
<rect x="0" y="0" width="179" height="59" />
<text id="B28340E5-940C50AFC6E7" x="63" y="13" fill="rgb(0,0,255)" font-weight="bold"  fill-opacity="1.0" font-size="10" stroke="none">
Company
</text>
<line x1="0" y1="17" x2="178" y2="17" fill="none" stroke="rgb(0,0,255)"/>
<text x="16" y="30" fill="rgb(255,0,0)" fill-opacity="1.0" font-size="10" stroke="none">
*
</text>
<text x="2" y="30" fill="rgb(0,0,255)" fill-opacity="1.0" font-size="10" stroke="none">
P
</text>
<text x="27" y="30" fill="rgb(0,0,0)" fill-opacity="1.0" font-size="10" stroke="none">
companyID
</text>
<text x="103" y="30" fill="rgb(0,128,0)" fill-opacity="1.0" font-size="10" stroke="none">
NUMBER (5)
</text>
<line x1="0" y1="36" x2="178" y2="36" fill="none" stroke="rgb(0,0,255)"/>
<use xlink:href="#pk_sym" x="4" y="43" width="8" height="8" fill-opacity="1.0"/>
<text x="16" y="49" fill="rgb(0,0,0)" fill-opacity="1.0" font-size="10" stroke="none">
PK_companyID (companyID)
</text>
</g>
<g  fill="rgb(164,225,255)" stroke="rgb(0,0,255)" fill-opacity="1.0" stroke-opacity="1.0" clip-path="url(#clipPath8_0_)" transform="translate(491,137)" >
<rect x="0" y="0" width="287" height="123" />
<text id="963CE641-8F072D5E9966" x="97" y="13" fill="rgb(0,0,255)" font-weight="bold"  fill-opacity="1.0" font-size="10" stroke="none">
RentTransaction
</text>
<line x1="0" y1="17" x2="286" y2="17" fill="none" stroke="rgb(0,0,255)"/>
<text x="16" y="30" fill="rgb(255,0,0)" fill-opacity="1.0" font-size="10" stroke="none">
*
</text>
<text x="2" y="30" fill="rgb(0,0,255)" fill-opacity="1.0" font-size="10" stroke="none">
P
</text>
<text x="27" y="30" fill="rgb(0,0,0)" fill-opacity="1.0" font-size="10" stroke="none">
rentTransactionID
</text>
<text x="133" y="30" fill="rgb(0,128,0)" fill-opacity="1.0" font-size="10" stroke="none">
NUMBER (5)
</text>
<text x="16" y="43" fill="rgb(255,0,0)" fill-opacity="1.0" font-size="10" stroke="none">
*
</text>
<text x="2" y="43" fill="rgb(0,0,255)" fill-opacity="1.0" font-size="10" stroke="none">
PF
</text>
<text x="27" y="43" fill="rgb(0,0,0)" fill-opacity="1.0" font-size="10" stroke="none">
companyID
</text>
<text x="133" y="43" fill="rgb(0,128,0)" fill-opacity="1.0" font-size="10" stroke="none">
NUMBER (5)
</text>
<text x="16" y="56" fill="rgb(255,0,0)" fill-opacity="1.0" font-size="10" stroke="none">

</text>
<text x="27" y="56" fill="rgb(0,0,0)" fill-opacity="1.0" font-size="10" stroke="none">
agentID
</text>
<text x="133" y="56" fill="rgb(0,128,0)" fill-opacity="1.0" font-size="10" stroke="none">
NUMBER (5)
</text>
<text x="16" y="69" fill="rgb(255,0,0)" fill-opacity="1.0" font-size="10" stroke="none">

</text>
<text x="27" y="69" fill="rgb(0,0,0)" fill-opacity="1.0" font-size="10" stroke="none">
buyerID
</text>
<text x="133" y="69" fill="rgb(0,128,0)" fill-opacity="1.0" font-size="10" stroke="none">
NUMBER (5)
</text>
<text x="16" y="82" fill="rgb(255,0,0)" fill-opacity="1.0" font-size="10" stroke="none">

</text>
<text x="27" y="82" fill="rgb(0,0,0)" fill-opacity="1.0" font-size="10" stroke="none">
sellerID
</text>
<text x="133" y="82" fill="rgb(0,128,0)" fill-opacity="1.0" font-size="10" stroke="none">
NUMBER (5)
</text>
<text x="16" y="95" fill="rgb(255,0,0)" fill-opacity="1.0" font-size="10" stroke="none">

</text>
<text x="27" y="95" fill="rgb(0,0,0)" fill-opacity="1.0" font-size="10" stroke="none">
price
</text>
<text x="133" y="95" fill="rgb(0,128,0)" fill-opacity="1.0" font-size="10" stroke="none">
NUMBER (10)
</text>
<line x1="0" y1="101" x2="286" y2="101" fill="none" stroke="rgb(0,0,255)"/>
<use xlink:href="#pk_sym" x="4" y="108" width="8" height="8" fill-opacity="1.0"/>
<text x="16" y="114" fill="rgb(0,0,0)" fill-opacity="1.0" font-size="10" stroke="none">
PK_rentTransactionID (rentTransactionID, companyID)
</text>
</g>
<g  fill="rgb(164,225,255)" stroke="rgb(0,0,255)" fill-opacity="1.0" stroke-opacity="1.0" clip-path="url(#clipPath1_0_)" transform="translate(434,325)" >
<rect x="0" y="0" width="226" height="201" />
<text id="E53294A7-A3FB84ACECA9" x="97" y="13" fill="rgb(0,0,255)" font-weight="bold"  fill-opacity="1.0" font-size="10" stroke="none">
Buyer
</text>
<line x1="0" y1="17" x2="225" y2="17" fill="none" stroke="rgb(0,0,255)"/>
<text x="16" y="30" fill="rgb(255,0,0)" fill-opacity="1.0" font-size="10" stroke="none">
*
</text>
<text x="2" y="30" fill="rgb(0,0,255)" fill-opacity="1.0" font-size="10" stroke="none">
P
</text>
<text x="27" y="30" fill="rgb(0,0,0)" fill-opacity="1.0" font-size="10" stroke="none">
buyerID
</text>
<text x="136" y="30" fill="rgb(0,128,0)" fill-opacity="1.0" font-size="10" stroke="none">
NUMBER (5)
</text>
<text x="16" y="43" fill="rgb(255,0,0)" fill-opacity="1.0" font-size="10" stroke="none">

</text>
<text x="27" y="43" fill="rgb(0,0,0)" fill-opacity="1.0" font-size="10" stroke="none">
buyerName
</text>
<text x="136" y="43" fill="rgb(0,128,0)" fill-opacity="1.0" font-size="10" stroke="none">
VARCHAR2 (50)
</text>
<text x="16" y="56" fill="rgb(255,0,0)" fill-opacity="1.0" font-size="10" stroke="none">

</text>
<text x="27" y="56" fill="rgb(0,0,0)" fill-opacity="1.0" font-size="10" stroke="none">
buyerPhoneNum
</text>
<text x="136" y="56" fill="rgb(0,128,0)" fill-opacity="1.0" font-size="10" stroke="none">
VARCHAR2 (13)
</text>
<text x="16" y="69" fill="rgb(255,0,0)" fill-opacity="1.0" font-size="10" stroke="none">

</text>
<text x="27" y="69" fill="rgb(0,0,0)" fill-opacity="1.0" font-size="10" stroke="none">
buyerEmail
</text>
<text x="136" y="69" fill="rgb(0,128,0)" fill-opacity="1.0" font-size="10" stroke="none">
VARCHAR2 (50)
</text>
<text x="16" y="82" fill="rgb(255,0,0)" fill-opacity="1.0" font-size="10" stroke="none">

</text>
<text x="27" y="82" fill="rgb(0,0,0)" fill-opacity="1.0" font-size="10" stroke="none">
minPreferredPrice
</text>
<text x="136" y="82" fill="rgb(0,128,0)" fill-opacity="1.0" font-size="10" stroke="none">
NUMBER (9)
</text>
<text x="16" y="95" fill="rgb(255,0,0)" fill-opacity="1.0" font-size="10" stroke="none">

</text>
<text x="27" y="95" fill="rgb(0,0,0)" fill-opacity="1.0" font-size="10" stroke="none">
maxPreferredPrice
</text>
<text x="136" y="95" fill="rgb(0,128,0)" fill-opacity="1.0" font-size="10" stroke="none">
NUMBER (9)
</text>
<text x="16" y="108" fill="rgb(255,0,0)" fill-opacity="1.0" font-size="10" stroke="none">

</text>
<text x="27" y="108" fill="rgb(0,0,0)" fill-opacity="1.0" font-size="10" stroke="none">
bedrooms
</text>
<text x="136" y="108" fill="rgb(0,128,0)" fill-opacity="1.0" font-size="10" stroke="none">
NUMBER (2)
</text>
<text x="16" y="121" fill="rgb(255,0,0)" fill-opacity="1.0" font-size="10" stroke="none">

</text>
<text x="27" y="121" fill="rgb(0,0,0)" fill-opacity="1.0" font-size="10" stroke="none">
bathrooms
</text>
<text x="136" y="121" fill="rgb(0,128,0)" fill-opacity="1.0" font-size="10" stroke="none">
NUMBER (2)
</text>
<text x="16" y="134" fill="rgb(255,0,0)" fill-opacity="1.0" font-size="10" stroke="none">
*
</text>
<text x="2" y="134" fill="rgb(0,0,0)" fill-opacity="1.0" font-size="10" stroke="none">
F
</text>
<text x="27" y="134" fill="rgb(0,0,0)" fill-opacity="1.0" font-size="10" stroke="none">
estateAgentID
</text>
<text x="136" y="134" fill="rgb(0,128,0)" fill-opacity="1.0" font-size="10" stroke="none">
NUMBER (5)
</text>
<text x="16" y="147" fill="rgb(255,0,0)" fill-opacity="1.0" font-size="10" stroke="none">
*
</text>
<text x="2" y="147" fill="rgb(0,0,0)" fill-opacity="1.0" font-size="10" stroke="none">
F
</text>
<text x="27" y="147" fill="rgb(0,0,0)" fill-opacity="1.0" font-size="10" stroke="none">
companyID
</text>
<text x="136" y="147" fill="rgb(0,128,0)" fill-opacity="1.0" font-size="10" stroke="none">
NUMBER (5)
</text>
<line x1="0" y1="153" x2="225" y2="153" fill="none" stroke="rgb(0,0,255)"/>
<use xlink:href="#uk_sym" x="4" y="160" width="8" height="8" fill-opacity="1.0"/>
<text x="16" y="166" fill="rgb(0,0,0)" fill-opacity="1.0" font-size="10" stroke="none">
PK_propertyID (buyerID)
</text>
<use xlink:href="#pk_sym" x="4" y="173" width="8" height="8" fill-opacity="1.0"/>
<text x="16" y="179" fill="rgb(0,0,0)" fill-opacity="1.0" font-size="10" stroke="none">
FK_agentID (buyerID)
</text>
</g>
<g  fill="rgb(164,225,255)" stroke="rgb(0,0,255)" fill-opacity="1.0" stroke-opacity="1.0" clip-path="url(#clipPath5_0_)" transform="translate(1229,302)" >
<rect x="0" y="0" width="169" height="95" />
<text id="2761905D-A1115B4B1189" x="62" y="13" fill="rgb(0,0,255)" font-weight="bold"  fill-opacity="1.0" font-size="10" stroke="none">
ForRent
</text>
<line x1="0" y1="17" x2="168" y2="17" fill="none" stroke="rgb(0,0,255)"/>
<text x="16" y="30" fill="rgb(255,0,0)" fill-opacity="1.0" font-size="10" stroke="none">
*
</text>
<text x="2" y="30" fill="rgb(0,0,255)" fill-opacity="1.0" font-size="10" stroke="none">
P
</text>
<text x="27" y="30" fill="rgb(0,0,0)" fill-opacity="1.0" font-size="10" stroke="none">
rentID
</text>
<text x="110" y="30" fill="rgb(0,128,0)" fill-opacity="1.0" font-size="10" stroke="none">
NUMBER
</text>
<text x="16" y="43" fill="rgb(255,0,0)" fill-opacity="1.0" font-size="10" stroke="none">

</text>
<text x="27" y="43" fill="rgb(0,0,0)" fill-opacity="1.0" font-size="10" stroke="none">
monthlyRent
</text>
<text x="110" y="43" fill="rgb(0,128,0)" fill-opacity="1.0" font-size="10" stroke="none">
NUMBER (10)
</text>
<text x="16" y="56" fill="rgb(255,0,0)" fill-opacity="1.0" font-size="10" stroke="none">
*
</text>
<text x="2" y="56" fill="rgb(0,0,255)" fill-opacity="1.0" font-size="10" stroke="none">
PF
</text>
<text x="27" y="56" fill="rgb(0,0,0)" fill-opacity="1.0" font-size="10" stroke="none">
propertyID
</text>
<text x="110" y="56" fill="rgb(0,128,0)" fill-opacity="1.0" font-size="10" stroke="none">
NUMBER (5)
</text>
<line x1="0" y1="62" x2="168" y2="62" fill="none" stroke="rgb(0,0,255)"/>
<use xlink:href="#pk_sym" x="4" y="69" width="8" height="8" fill-opacity="1.0"/>
<text x="16" y="75" fill="rgb(0,0,0)" fill-opacity="1.0" font-size="10" stroke="none">
PK_rentID (rentID, propertyID)
</text>
<use xlink:href="#uk_sym" x="4" y="82" width="8" height="8" fill-opacity="1.0"/>
<text x="16" y="88" fill="rgb(0,0,0)" fill-opacity="1.0" font-size="10" stroke="none">
FK_propertyID ()
</text>
</g>
<g  fill="rgb(164,225,255)" stroke="rgb(0,0,255)" fill-opacity="1.0" stroke-opacity="1.0" clip-path="url(#clipPath6_0_)" transform="translate(1228,498)" >
<rect x="0" y="0" width="193" height="94" />
<text id="C543819E-3CBA9950695F" x="76" y="13" fill="rgb(0,0,255)" font-weight="bold"  fill-opacity="1.0" font-size="10" stroke="none">
ForSale
</text>
<line x1="0" y1="17" x2="192" y2="17" fill="none" stroke="rgb(0,0,255)"/>
<text x="16" y="30" fill="rgb(255,0,0)" fill-opacity="1.0" font-size="10" stroke="none">
*
</text>
<text x="2" y="30" fill="rgb(0,0,255)" fill-opacity="1.0" font-size="10" stroke="none">
P
</text>
<text x="27" y="30" fill="rgb(0,0,0)" fill-opacity="1.0" font-size="10" stroke="none">
saleID
</text>
<text x="101" y="30" fill="rgb(0,128,0)" fill-opacity="1.0" font-size="10" stroke="none">
NUMBER (5)
</text>
<text x="16" y="43" fill="rgb(255,0,0)" fill-opacity="1.0" font-size="10" stroke="none">

</text>
<text x="27" y="43" fill="rgb(0,0,0)" fill-opacity="1.0" font-size="10" stroke="none">
askingPrice
</text>
<text x="101" y="43" fill="rgb(0,128,0)" fill-opacity="1.0" font-size="10" stroke="none">
NUMBER (10)
</text>
<text x="16" y="56" fill="rgb(255,0,0)" fill-opacity="1.0" font-size="10" stroke="none">
*
</text>
<text x="2" y="56" fill="rgb(0,0,255)" fill-opacity="1.0" font-size="10" stroke="none">
PF
</text>
<text x="27" y="56" fill="rgb(0,0,0)" fill-opacity="1.0" font-size="10" stroke="none">
propertyID
</text>
<text x="101" y="56" fill="rgb(0,128,0)" fill-opacity="1.0" font-size="10" stroke="none">
NUMBER (5)
</text>
<line x1="0" y1="62" x2="192" y2="62" fill="none" stroke="rgb(0,0,255)"/>
<use xlink:href="#pk_sym" x="4" y="69" width="8" height="8" fill-opacity="1.0"/>
<text x="16" y="75" fill="rgb(0,0,0)" fill-opacity="1.0" font-size="10" stroke="none">
PK_saleID (saleID, propertyID)
</text>
<use xlink:href="#uk_sym" x="4" y="82" width="8" height="8" fill-opacity="1.0"/>
<text x="16" y="88" fill="rgb(0,0,0)" fill-opacity="1.0" font-size="10" stroke="none">
FK_propertyID ()
</text>
</g>
<g  fill="rgb(164,225,255)" stroke="rgb(0,0,255)" fill-opacity="1.0" stroke-opacity="1.0" clip-path="url(#clipPath9_0_)" transform="translate(865,666)" >
<rect x="0" y="0" width="229" height="110" />
<text id="80CD8C55-12528E0F08F9" x="99" y="13" fill="rgb(0,0,255)" font-weight="bold"  fill-opacity="1.0" font-size="10" stroke="none">
Seller
</text>
<line x1="0" y1="17" x2="228" y2="17" fill="none" stroke="rgb(0,0,255)"/>
<text x="16" y="30" fill="rgb(255,0,0)" fill-opacity="1.0" font-size="10" stroke="none">
*
</text>
<text x="2" y="30" fill="rgb(0,0,255)" fill-opacity="1.0" font-size="10" stroke="none">
P
</text>
<text x="27" y="30" fill="rgb(0,0,0)" fill-opacity="1.0" font-size="10" stroke="none">
sellerID
</text>
<text x="127" y="30" fill="rgb(0,128,0)" fill-opacity="1.0" font-size="10" stroke="none">
NUMBER (5)
</text>
<text x="16" y="43" fill="rgb(255,0,0)" fill-opacity="1.0" font-size="10" stroke="none">

</text>
<text x="27" y="43" fill="rgb(0,0,0)" fill-opacity="1.0" font-size="10" stroke="none">
sellerName
</text>
<text x="127" y="43" fill="rgb(0,128,0)" fill-opacity="1.0" font-size="10" stroke="none">
VARCHAR2 (50)
</text>
<text x="16" y="56" fill="rgb(255,0,0)" fill-opacity="1.0" font-size="10" stroke="none">

</text>
<text x="27" y="56" fill="rgb(0,0,0)" fill-opacity="1.0" font-size="10" stroke="none">
sellerPhoneNum
</text>
<text x="127" y="56" fill="rgb(0,128,0)" fill-opacity="1.0" font-size="10" stroke="none">
VARCHAR2 (13)
</text>
<text x="16" y="69" fill="rgb(255,0,0)" fill-opacity="1.0" font-size="10" stroke="none">

</text>
<text x="27" y="69" fill="rgb(0,0,0)" fill-opacity="1.0" font-size="10" stroke="none">
sellerEmail
</text>
<text x="127" y="69" fill="rgb(0,128,0)" fill-opacity="1.0" font-size="10" stroke="none">
VARCHAR2 (50)
</text>
<text x="16" y="82" fill="rgb(255,0,0)" fill-opacity="1.0" font-size="10" stroke="none">
*
</text>
<text x="2" y="82" fill="rgb(0,0,255)" fill-opacity="1.0" font-size="10" stroke="none">
PF
</text>
<text x="27" y="82" fill="rgb(0,0,0)" fill-opacity="1.0" font-size="10" stroke="none">
propertyID
</text>
<text x="127" y="82" fill="rgb(0,128,0)" fill-opacity="1.0" font-size="10" stroke="none">
NUMBER (5)
</text>
<line x1="0" y1="88" x2="228" y2="88" fill="none" stroke="rgb(0,0,255)"/>
<use xlink:href="#pk_sym" x="4" y="95" width="8" height="8" fill-opacity="1.0"/>
<text x="16" y="101" fill="rgb(0,0,0)" fill-opacity="1.0" font-size="10" stroke="none">
PK_sellerID (sellerID, propertyID)
</text>
</g>
<g  fill="rgb(164,225,255)" stroke="rgb(0,0,255)" fill-opacity="1.0" stroke-opacity="1.0" clip-path="url(#clipPath4_0_)" transform="translate(828,316)" >
<rect x="0" y="0" width="273" height="110" />
<text id="6675A75C-6096BAE40052" x="101" y="13" fill="rgb(0,0,255)" font-weight="bold"  fill-opacity="1.0" font-size="10" stroke="none">
EstateAgent
</text>
<line x1="0" y1="17" x2="272" y2="17" fill="none" stroke="rgb(0,0,255)"/>
<text x="16" y="30" fill="rgb(255,0,0)" fill-opacity="1.0" font-size="10" stroke="none">
*
</text>
<text x="2" y="30" fill="rgb(0,0,255)" fill-opacity="1.0" font-size="10" stroke="none">
P
</text>
<text x="27" y="30" fill="rgb(0,0,0)" fill-opacity="1.0" font-size="10" stroke="none">
estateAgentID
</text>
<text x="118" y="30" fill="rgb(0,128,0)" fill-opacity="1.0" font-size="10" stroke="none">
NUMBER (5)
</text>
<text x="16" y="43" fill="rgb(255,0,0)" fill-opacity="1.0" font-size="10" stroke="none">
*
</text>
<text x="2" y="43" fill="rgb(0,0,255)" fill-opacity="1.0" font-size="10" stroke="none">
PF
</text>
<text x="27" y="43" fill="rgb(0,0,0)" fill-opacity="1.0" font-size="10" stroke="none">
companyID
</text>
<text x="118" y="43" fill="rgb(0,128,0)" fill-opacity="1.0" font-size="10" stroke="none">
NUMBER (5)
</text>
<text x="16" y="56" fill="rgb(255,0,0)" fill-opacity="1.0" font-size="10" stroke="none">

</text>
<text x="27" y="56" fill="rgb(0,0,0)" fill-opacity="1.0" font-size="10" stroke="none">
agentName
</text>
<text x="118" y="56" fill="rgb(0,128,0)" fill-opacity="1.0" font-size="10" stroke="none">
VARCHAR2 (50)
</text>
<text x="16" y="69" fill="rgb(255,0,0)" fill-opacity="1.0" font-size="10" stroke="none">

</text>
<text x="27" y="69" fill="rgb(0,0,0)" fill-opacity="1.0" font-size="10" stroke="none">
agentEmail
</text>
<text x="118" y="69" fill="rgb(0,128,0)" fill-opacity="1.0" font-size="10" stroke="none">
VARCHAR2 (13)
</text>
<text x="16" y="82" fill="rgb(255,0,0)" fill-opacity="1.0" font-size="10" stroke="none">

</text>
<text x="27" y="82" fill="rgb(0,0,0)" fill-opacity="1.0" font-size="10" stroke="none">
startDate
</text>
<text x="118" y="82" fill="rgb(0,128,0)" fill-opacity="1.0" font-size="10" stroke="none">
DATE
</text>
<line x1="0" y1="88" x2="272" y2="88" fill="none" stroke="rgb(0,0,255)"/>
<use xlink:href="#pk_sym" x="4" y="95" width="8" height="8" fill-opacity="1.0"/>
<text x="16" y="101" fill="rgb(0,0,0)" fill-opacity="1.0" font-size="10" stroke="none">
PK_estateAgentID (estateAgentID, companyID)
</text>
</g>

</svg>